<svg width="57" height="56" viewBox="0 0 57 56" fill="none" xmlns="http://www.w3.org/2000/svg">
<rect x="12.5" y="15" width="31" height="31" fill="#14B8A6"/>
<path d="M27.5 15H15.0556C14.1126 15 13.2082 15.3746 12.5414 16.0414C11.8746 16.7082 11.5 17.6126 11.5 18.5556V43.4444C11.5 44.3874 11.8746 45.2918 12.5414 45.9586C13.2082 46.6254 14.1126 47 15.0556 47H39.9444C40.8874 47 41.7918 46.6254 42.4586 45.9586C43.1254 45.2918 43.5 44.3874 43.5 43.4444V31" stroke="#1E1E1E" stroke-width="3.5" stroke-linecap="round" stroke-linejoin="round"/>
<path d="M41.0889 12.1C41.7932 11.3957 42.7484 11 43.7445 11C44.7405 11 45.6957 11.3957 46.4 12.1C47.1043 12.8043 47.5 13.7595 47.5 14.7555C47.5 15.7516 47.1043 16.7068 46.4 17.4111L29.5815 34.2296L22.5 36L24.2704 28.9185L41.0889 12.1Z" fill="white" stroke="#1E1E1E" stroke-width="3.5" stroke-linecap="round" stroke-linejoin="round"/>
</svg>
