<svg width="32" height="32" viewBox="0 0 32 32" fill="none" xmlns="http://www.w3.org/2000/svg">
<rect x="3.2002" y="5.33331" width="23.4667" height="23.4667" fill="#14B8A6"/>
<path d="M14.6665 5.33331H5.33317C4.62593 5.33331 3.94765 5.61426 3.44755 6.11436C2.94746 6.61446 2.6665 7.29274 2.6665 7.99998V26.6666C2.6665 27.3739 2.94746 28.0522 3.44755 28.5523C3.94765 29.0524 4.62593 29.3333 5.33317 29.3333H23.9998C24.7071 29.3333 25.3854 29.0524 25.8855 28.5523C26.3856 28.0522 26.6665 27.3739 26.6665 26.6666V17.3333" stroke="#1E1E1E" stroke-width="2" stroke-linecap="round" stroke-linejoin="round"/>
<path d="M24.6665 3.33331C25.1969 2.80288 25.9164 2.50488 26.6665 2.50488C27.4167 2.50488 28.1361 2.80288 28.6665 3.33331C29.1969 3.86374 29.4949 4.58316 29.4949 5.33331C29.4949 6.08346 29.1969 6.80288 28.6665 7.33331L15.9998 20L10.6665 21.3333L11.9998 16L24.6665 3.33331Z" fill="white" stroke="#1E1E1E" stroke-width="2" stroke-linecap="round" stroke-linejoin="round"/>
</svg>
